<svg width="438" height="531" viewBox="0 0 438 531" fill="none" xmlns="http://www.w3.org/2000/svg">
<path d="M393.004 377.919H418.417V412.409H437.659V432.195H418.417V492.097H393.004V432.195H380.661V412.409H393.004V377.919Z" fill="#6B7280"/>
<path d="M350.314 412.772H375.727V492.097H350.314V412.772ZM349.769 384.636C349.769 380.884 351.221 377.798 354.126 375.378C357.151 372.958 360.358 371.748 363.747 371.748C367.135 371.748 370.221 372.958 373.004 375.378C375.909 377.798 377.361 380.884 377.361 384.636C377.361 388.387 375.909 391.473 373.004 393.893C370.221 396.193 367.135 397.342 363.747 397.342C360.358 397.342 357.151 396.193 354.126 393.893C351.221 391.473 349.769 388.387 349.769 384.636Z" fill="#6B7280"/>
<path d="M302.654 377.919H328.067V412.409H347.309V432.195H328.067V492.097H302.654V432.195H290.311V412.409H302.654V377.919Z" fill="#6B7280"/>
<path d="M248.011 494.276C243.292 494.276 238.633 493.429 234.034 491.734C229.557 489.919 225.805 487.378 222.78 484.11L223.506 476.668V530.217H198.274V410.957H220.057L223.687 426.386L221.691 420.94C225.805 417.431 230.404 414.527 235.486 412.227C240.569 409.928 246.438 408.778 253.094 408.778C260.476 408.778 267.071 410.533 272.88 414.043C278.689 417.431 283.227 422.393 286.494 428.927C289.883 435.341 291.577 443.086 291.577 452.162C291.577 461.117 289.701 468.741 285.95 475.034C282.198 481.327 277.055 486.107 270.52 489.375C263.985 492.642 256.483 494.276 248.011 494.276ZM242.929 474.308C247.043 474.308 250.795 473.401 254.183 471.585C257.693 469.77 260.476 467.229 262.533 463.961C264.712 460.573 265.801 456.761 265.801 452.525C265.801 448.048 264.833 444.175 262.896 440.908C261.081 437.52 258.54 434.918 255.272 433.102C252.126 431.166 248.617 430.198 244.744 430.198C239.661 430.198 235.426 431.227 232.037 433.284C228.649 435.22 225.866 438.185 223.687 442.179V461.602C225.019 465.474 227.378 468.56 230.767 470.859C234.276 473.159 238.33 474.308 242.929 474.308Z" fill="#1F2937"/>
<path d="M151.074 494.276C146.354 494.276 141.695 493.429 137.097 491.734C132.619 489.919 128.868 487.378 125.842 484.11L126.568 476.668V530.217H101.337V410.957H123.119L126.75 426.386L124.753 420.94C128.868 417.431 133.466 414.527 138.549 412.227C143.632 409.928 149.501 408.778 156.157 408.778C163.539 408.778 170.134 410.533 175.943 414.043C181.751 417.431 186.289 422.393 189.557 428.927C192.945 435.341 194.639 443.086 194.639 452.162C194.639 461.117 192.764 468.741 189.012 475.034C185.261 481.327 180.118 486.107 173.583 489.375C167.048 492.642 159.545 494.276 151.074 494.276ZM145.991 474.308C150.106 474.308 153.857 473.401 157.246 471.585C160.755 469.77 163.539 467.229 165.596 463.961C167.774 460.573 168.863 456.761 168.863 452.525C168.863 448.048 167.895 444.175 165.959 440.908C164.144 437.52 161.602 434.918 158.335 433.102C155.188 431.166 151.679 430.198 147.807 430.198C142.724 430.198 138.488 431.227 135.1 433.284C131.712 435.22 128.928 438.185 126.75 442.179V461.602C128.081 465.474 130.441 468.56 133.829 470.859C137.339 473.159 141.393 474.308 145.991 474.308Z" fill="#1F2937"/>
<path d="M39.572 494.276C32.1901 494.276 25.4737 492.824 19.423 489.919C13.4932 486.894 8.77361 482.295 5.26417 476.123C1.75472 469.952 0 462.086 0 452.525C0 443.57 1.81523 435.825 5.44569 429.29C9.07615 422.756 13.8563 417.734 19.786 414.224C25.7158 410.594 32.0086 408.778 38.6644 408.778C46.5304 408.778 52.4601 410.11 56.4536 412.772C60.5682 415.313 63.9566 418.157 66.6189 421.303L65.5298 424.389L67.8896 412.772H91.4876V492.097H66.0744V474.853L68.0711 480.298C67.8291 480.298 67.103 481.025 65.8928 482.477C64.6827 483.808 62.8675 485.442 60.4471 487.378C58.1479 489.193 55.2435 490.766 51.7341 492.097C48.3456 493.55 44.2916 494.276 39.572 494.276ZM46.8329 473.582C51.4315 473.582 55.304 472.614 58.4504 470.678C61.5968 468.62 64.1381 465.595 66.0744 461.602V442.179C64.6222 438.306 62.0809 435.22 58.4504 432.921C54.941 430.622 50.7659 429.472 45.9253 429.472C42.2949 429.472 38.9064 430.44 35.76 432.376C32.7346 434.192 30.3143 436.733 28.4991 440C26.6839 443.268 25.7763 447.019 25.7763 451.255C25.7763 455.49 26.7444 459.302 28.6806 462.691C30.6169 466.079 33.1582 468.741 36.3046 470.678C39.572 472.614 43.0815 473.582 46.8329 473.582Z" fill="#1F2937"/>
<g filter="url(#filter0_i_122_253)">
<rect x="92.3726" y="325.601" width="333.055" height="87.4429" rx="43.7214" transform="rotate(-77.8553 92.3726 325.601)" fill="#1565C0"/>
</g>
<g filter="url(#filter1_i_122_253)">
<rect x="308.822" y="132.026" width="200.224" height="87.4429" rx="43.7214" transform="rotate(79.5026 308.822 132.026)" fill="#1565C0"/>
</g>
<g filter="url(#filter2_di_122_253)">
<circle cx="264.677" cy="243.212" r="56.0169" fill="#38B000"/>
</g>
<defs>
<filter id="filter0_i_122_253" x="100.583" y="8.21063" width="143.133" height="331.576" filterUnits="userSpaceOnUse" color-interpolation-filters="sRGB">
<feFlood flood-opacity="0" result="BackgroundImageFix"/>
<feBlend mode="normal" in="SourceGraphic" in2="BackgroundImageFix" result="shape"/>
<feColorMatrix in="SourceAlpha" type="matrix" values="0 0 0 0 0 0 0 0 0 0 0 0 0 0 0 0 0 0 127 0" result="hardAlpha"/>
<feOffset dx="4" dy="4"/>
<feGaussianBlur stdDeviation="6"/>
<feComposite in2="hardAlpha" operator="arithmetic" k2="-1" k3="1"/>
<feColorMatrix type="matrix" values="0 0 0 0 0 0 0 0 0 0 0 0 0 0 0 0 0 0 0.25 0"/>
<feBlend mode="normal" in2="shape" result="effect1_innerShadow_122_253"/>
</filter>
<filter id="filter1_i_122_253" x="230.068" y="139.252" width="116.006" height="202.352" filterUnits="userSpaceOnUse" color-interpolation-filters="sRGB">
<feFlood flood-opacity="0" result="BackgroundImageFix"/>
<feBlend mode="normal" in="SourceGraphic" in2="BackgroundImageFix" result="shape"/>
<feColorMatrix in="SourceAlpha" type="matrix" values="0 0 0 0 0 0 0 0 0 0 0 0 0 0 0 0 0 0 127 0" result="hardAlpha"/>
<feOffset dx="8" dy="4"/>
<feGaussianBlur stdDeviation="6"/>
<feComposite in2="hardAlpha" operator="arithmetic" k2="-1" k3="1"/>
<feColorMatrix type="matrix" values="0 0 0 0 0 0 0 0 0 0 0 0 0 0 0 0 0 0 0.25 0"/>
<feBlend mode="normal" in2="shape" result="effect1_innerShadow_122_253"/>
</filter>
<filter id="filter2_di_122_253" x="208.661" y="187.196" width="120.034" height="120.034" filterUnits="userSpaceOnUse" color-interpolation-filters="sRGB">
<feFlood flood-opacity="0" result="BackgroundImageFix"/>
<feColorMatrix in="SourceAlpha" type="matrix" values="0 0 0 0 0 0 0 0 0 0 0 0 0 0 0 0 0 0 127 0" result="hardAlpha"/>
<feOffset dx="4" dy="4"/>
<feGaussianBlur stdDeviation="2"/>
<feComposite in2="hardAlpha" operator="out"/>
<feColorMatrix type="matrix" values="0 0 0 0 0 0 0 0 0 0 0 0 0 0 0 0 0 0 0.25 0"/>
<feBlend mode="normal" in2="BackgroundImageFix" result="effect1_dropShadow_122_253"/>
<feBlend mode="normal" in="SourceGraphic" in2="effect1_dropShadow_122_253" result="shape"/>
<feColorMatrix in="SourceAlpha" type="matrix" values="0 0 0 0 0 0 0 0 0 0 0 0 0 0 0 0 0 0 127 0" result="hardAlpha"/>
<feOffset dx="4" dy="4"/>
<feGaussianBlur stdDeviation="4"/>
<feComposite in2="hardAlpha" operator="arithmetic" k2="-1" k3="1"/>
<feColorMatrix type="matrix" values="0 0 0 0 1 0 0 0 0 1 0 0 0 0 1 0 0 0 0.25 0"/>
<feBlend mode="normal" in2="shape" result="effect2_innerShadow_122_253"/>
</filter>
</defs>
</svg>
